<?xml version="1.0" encoding="UTF-8" standalone="no"?>
<svg
   version="1.1"
   width="606.23315"
   height="602.77722"
   id="svg331"
   sodipodi:docname="favicon.svg"
   inkscape:version="1.4 (e7c3feb1, 2024-10-09)"
   xmlns:inkscape="http://www.inkscape.org/namespaces/inkscape"
   xmlns:sodipodi="http://sodipodi.sourceforge.net/DTD/sodipodi-0.dtd"
   xmlns:xlink="http://www.w3.org/1999/xlink"
   xmlns="http://www.w3.org/2000/svg"
   xmlns:svg="http://www.w3.org/2000/svg">
  <defs
     id="defs331">
    <linearGradient
       id="linearGradient6"
       inkscape:collect="always">
      <stop
         style="stop-color:#000000;stop-opacity:1;"
         offset="0"
         id="stop7" />
      <stop
         style="stop-color:#000000;stop-opacity:0;"
         offset="1"
         id="stop8" />
    </linearGradient>
    <radialGradient
       inkscape:collect="always"
       xlink:href="#linearGradient6"
       id="radialGradient8"
       cx="315.21265"
       cy="315.21265"
       fx="315.21265"
       fy="315.21265"
       r="315.21265"
       gradientUnits="userSpaceOnUse"
       gradientTransform="matrix(0.96176528,0,0,0.9560053,-0.04402582,0.04365678)" />
  </defs>
  <sodipodi:namedview
     id="namedview331"
     pagecolor="#ffffff"
     bordercolor="#000000"
     borderopacity="0.25"
     inkscape:showpageshadow="2"
     inkscape:pageopacity="0.0"
     inkscape:pagecheckerboard="0"
     inkscape:deskcolor="#d1d1d1"
     inkscape:zoom="0.57870655"
     inkscape:cx="23.327885"
     inkscape:cy="495.93356"
     inkscape:window-width="1512"
     inkscape:window-height="921"
     inkscape:window-x="0"
     inkscape:window-y="33"
     inkscape:window-maximized="1"
     inkscape:current-layer="svg331" />
  <ellipse
     style="fill:#ffffff;stroke:url(#radialGradient8);stroke-width:29.174;stroke-linecap:round;stroke-miterlimit:0;stroke-dasharray:none;stroke-opacity:1;paint-order:stroke fill markers"
     id="path11"
     cx="303.11658"
     cy="301.38861"
     rx="288.52957"
     ry="286.80161" />
  <path
     d="m 409.51097,183.70058 c 4.74958,3.1931 8.39038,8.10865 10.1875,13.5 1.38799,15.82308 -11.36943,32.93416 -18.625,46.375 l -1.63062,3.02393 c -2.55084,4.69431 -5.1574,9.33181 -7.93188,13.89795 -2.29625,3.78397 -4.29742,7.57729 -6.1875,11.57812 -3.31793,6.79913 -7.28383,12.93921 -11.625,19.125 -0.93073,1.36778 -1.86035,2.73632 -2.78906,4.10547 -11.43346,16.7113 -24.96214,31.98983 -42.21094,42.89453 l -2.92578,1.92187 c -17.9895,11.11687 -38.4941,15.45929 -59.07422,19.07813 -8.53789,1.50212 -16.31506,3.23057 -24.25781,6.79297 -3.83566,1.68834 -3.7025,1.73951 -8.35167,3.98829 l -3.39052,2.21874 c -1.46875,1.41016 -1.46875,1.41016 -3.5,3.0625 -11.03816,9.41663 -17.11486,19.05824 -21.72412,32.68115 -1.57659,4.58492 -3.24526,9.13702 -4.90088,13.69385 l -1.02075,2.83447 c -1.80576,4.98358 -3.70753,9.88123 -5.85425,14.72803 1.98172,-0.82931 3.96327,-1.65902 5.94409,-2.49048 1.71673,-0.72004 3.43436,-1.43795 5.15283,-2.15381 4.18697,-1.75273 8.34366,-3.53733 12.44605,-5.48071 l 2.125,-0.98999 c 1.30835,-0.61384 2.60979,-1.24272 3.90234,-1.88916 5.03102,-2.33631 8.15239,-2.12594 13.42969,-0.99585 2.73047,1.05078 2.73047,1.05078 5.1875,2.3125 9.80479,4.63524 19.31643,6.94793 30,8.4375 l 2.77075,0.38721 c 19.81375,2.53853 40.87496,0.30183 59.04175,-8.13721 l 3.03906,-1.33594 c 9.19037,-4.28553 17.54044,-10.05705 25.96094,-15.66406 l -1.32813,-2.62109 c -5.91155,-11.71961 -11.59231,-23.54679 -17.23974,-35.39551 -1.32053,-2.75091 -2.66224,-5.49 -4.01416,-8.22559 l -1.1543,-2.36548 c -0.69647,-1.42691 -1.40166,-2.84963 -2.11719,-4.26709 -1.22568,-2.53532 -2.16005,-4.55904 -2.09179,-7.40649 1.26245,-2.29536 2.62595,-3.08545 4.88281,-4.40625 4.67057,-2.93579 8.59825,-6.33705 12.64062,-10.07813 2.20212,-2.03163 4.45148,-3.98226 6.73438,-5.92187 3.29163,-2.85764 6.00736,-5.87857 8.6875,-9.3125 1.76953,0.0742 1.76953,0.0742 4,1 1.4325,2.27299 2.56726,4.38987 3.6875,6.8125 l 1.02905,2.13818 c 3.10924,6.51858 6.04392,13.12034 8.9773,19.71949 3.22051,7.22471 6.68524,14.29758 10.30615,21.32983 14.86446,-28.06911 20.75406,-61.38727 11.97656,-92.64453 -0.68819,-2.1744 -1.40726,-4.33955 -2.17187,-6.48828 -1.73421,-6.17917 -0.5529,-10.27662 2.38281,-15.80469 l 1.03711,-2.01562 c 5.30428,-10.16883 11.06579,-20.10214 16.77539,-30.04688 2.58544,0.35529 3.7033,0.62539 5.35278,2.70801 l 1.198,2.24512 1.35718,2.53369 1.40454,2.76318 1.46509,2.85303 c 19.55115,39.19356 22.29875,85.45022 8.62085,126.88525 -6.88677,19.8663 -16.59715,38.03313 -30.58594,53.78906 -2.28343,2.5779 -4.35521,5.24338 -6.375,8.03516 -3.29875,4.31865 -7.21702,7.52135 -11.48047,10.86328 -3.05929,2.4046 -6.00311,4.91674 -8.95703,7.44922 -30.69131,25.41319 -73.36161,36.61345 -112.70459,33.67285 -13.0452,-1.28871 -25.5033,-4.44462 -38.0415,-8.18115 l -2.25391,-0.6167 -2.46509,-0.69727 c -3.14678,-0.3758 -4.7653,0.27826 -7.656,1.54883 l -3.04078,1.31226 -3.27563,1.46118 -3.42212,1.48657 c -2.43492,1.0592 -4.8673,2.12277 -7.29663,3.19458 -5.93442,2.61807 -11.88438,5.20038 -17.83401,7.78363 -1.89947,0.82693 -3.79649,1.65927 -5.69309,2.49274 -25.70006,11.22555 -25.70006,11.22555 -35.71118,7.53467 -5.58575,-3.12968 -8.12551,-7.17062 -10.35547,-13.11719 -0.89638,-7.17101 0.59814,-12.86327 2.75,-19.6875 l 0.94702,-3.05688 c 2.91457,-9.20243 6.44114,-18.10244 10.13159,-27.01539 3.70246,-9.00204 6.90694,-18.10099 9.7793,-27.40112 5.95071,-19.17056 13.2227,-34.10751 25.6604,-49.94433 1.16354,-1.48794 2.28586,-3.00812 3.39185,-4.53931 3.04777,-3.43515 6.60747,-6.05183 10.27734,-8.79297 l 2.32104,-1.74609 c 2.15715,-1.61471 4.32241,-3.21774 6.49146,-4.81641 l 2.69531,-2.00391 c 14.73476,-10.4122 33.47583,-13.38774 50.86719,-16.43359 24.60944,-4.38733 47.11019,-12.77905 63.4375,-32.5625 l 1.44922,-1.57031 c 8.26187,-9.00884 14.07636,-20.18541 19.89844,-30.84521 2.33855,-4.2702 4.76926,-8.42358 7.40234,-12.52198 4.16932,-6.63531 7.67914,-13.59204 11.25,-20.5625 16.549,-32.23778 16.549,-32.23778 25.40234,-36.71484 5.57572,-1.68529 12.10637,-1.95477 17.41016,0.71484 z"
     fill="#2c1b67"
     id="path1"
     sodipodi:nodetypes="cccccccccccccccccccccccccccccccccccccccccccccccccccccccccccccccccccccccccccccccccccccccccccc" />
  <path
     d="m 377.69847,172.20058 c -0.53176,3.89735 -1.45643,5.89774 -4.0625,8.8125 -4.38563,5.36223 -7.17144,11.30679 -10.14063,17.51563 -1.43731,3.00081 -3.0258,5.85128 -4.79687,8.67187 -5.01185,-0.51249 -8.19194,-2.08964 -12.4375,-4.75 -11.00996,-6.60184 -23.05095,-9.65485 -35.5625,-12.25 l 0.74683,1.55372 c 4.11198,8.57134 8.20294,17.10723 11.72192,25.94238 1.35116,3.09181 2.80068,6.08635 4.3125,9.10156 l 1.53369,3.08887 c 1.02368,2.0512 2.06199,4.09518 3.11621,6.13086 2.07177,4.1689 3.54324,7.23717 3.67041,11.93261 -1.34637,3.97228 -3.18222,7.03631 -5.60156,10.4375 l -1.36133,1.96314 c -0.92366,1.32362 -1.85399,2.6426 -2.79101,3.95679 -1.23822,1.73888 -2.45092,3.49287 -3.66016,5.25195 -4.62063,6.50188 -9.65167,12.6401 -16.6875,16.64062 -3,-1 -3,-1 -4.42285,-3.46167 l -1.46778,-3.2688 -1.64184,-3.60644 c -0.57256,-1.28351 -1.14507,-2.56704 -1.71753,-3.85059 -0.87367,-1.92823 -1.75117,-3.85468 -2.62911,-5.78097 -0.57638,-1.26489 -1.15166,-2.53029 -1.72579,-3.7962 -2.95485,-6.50445 -6.1149,-12.88963 -9.3951,-19.23533 -3.05632,5.82906 -5.94153,11.61957 -8.1875,17.8125 -3.52683,9.48122 -8.10631,18.49894 -12.54248,27.58008 -1.08277,2.22298 -2.15133,4.45171 -3.21143,6.68555 l -1.55859,3.23437 -1.28125,2.67578 c -1.54286,2.54671 -3.24976,3.72521 -6.10962,4.5708 l -2.14429,0.44873 c -16.42962,3.6468 -30.70048,9.66711 -45.04687,18.42578 -2.73742,1.46949 -4.86,2.16509 -7.91797,2.56641 3.08011,-8.6212 6.73967,-16.82228 10.70313,-25.06445 2.02025,-4.21166 3.97616,-8.41823 5.73437,-12.74805 4.74788,-11.68835 9.97785,-23.28153 15.75,-34.5 2.24736,-4.38455 4.13872,-8.86781 5.96875,-13.4375 3.71494,-9.14439 7.89163,-18.03935 12.15625,-26.9375 1.07602,-2.24814 2.15062,-4.49691 3.22099,-6.74775 0.65664,-1.38067 1.31642,-2.75984 1.98001,-4.13718 1.78069,-3.74212 3.26186,-7.46855 4.4865,-11.42757 -15.23784,5.10697 -29.37472,12.11915 -42.25,21.82032 -1.75,1.17968 -0.61685,0.19762 -2.6924,1.93512 l -1.89619,1.59891 c -2.18856,2.46759 -3.58208,3.58219 -6.16141,5.64565 -2.45206,2.56911 -4.72604,5.27322 -7,8 l -1.61719,1.85157 c -9.17251,11.01579 -15.96327,23.99863 -20.88281,37.39843 l -0.95093,2.573 c -4.38973,12.62423 -6.0888,25.16107 -5.98657,38.4895 l 0.005,2.0318 c 0.0505,11.57592 1.01857,22.89311 5.25751,33.77386 0.81655,2.44754 1.2517,4.29549 1.1748,6.88184 -1.39957,2.68631 -3.10224,4.88758 -4.97852,7.26416 -3.59629,4.86716 -5.82232,10.41589 -8.27148,15.92334 l -1.5625,3.44336 c -2.45719,5.43052 -4.86736,10.87867 -7.1875,16.36914 -1.84058,-0.22559 -1.84058,-0.22559 -4,-1 -1.35278,-1.8916 -1.35278,-1.8916 -2.55078,-4.39063 l -1.35742,-2.80883 -1.4043,-3.05054 -1.46289,-3.12671 c -18.3634,-40.13776 -21.29472,-85.7656 -6.09131,-127.48461 6.77602,-17.6126 15.27888,-33.04233 27.56983,-47.40039 1.85711,-2.21401 3.5299,-4.42959 5.17187,-6.80079 5.27367,-7.20758 12.98267,-13.63941 20.12519,-18.9375 l 1.00349,-0.87498 0.99651,-1.12502 c 5.44161,-4.57992 11.70648,-8.10691 17.98047,-11.40625 2.14591,-1.13264 4.27182,-2.30352 6.38281,-3.5 52.04886,-29.31389 115.6001,-22.26683 165.63672,6.90625 z"
     fill="#2d1b67"
     id="path2"
     sodipodi:nodetypes="ccccccccccccccccccccccccccccccccccccccccccccccccccccccccccccccccccccccc" />
  <path
     d="m 409.51097,183.70058 c 4.74958,3.1931 8.39038,8.10865 10.1875,13.5 1.38799,15.82308 -11.36943,32.93416 -18.625,46.375 l -1.63062,3.02393 c -2.55084,4.69431 -5.1574,9.33181 -7.93188,13.89795 -2.29625,3.78397 -4.29742,7.57729 -6.1875,11.57812 -3.31793,6.79913 -7.28383,12.93921 -11.625,19.125 -0.93073,1.36778 -1.86035,2.73632 -2.78906,4.10547 -11.43346,16.7113 -24.96214,31.98983 -42.21094,42.89453 l -2.92578,1.92187 c -17.60029,10.87635 -51.1627,24.50113 -72.10352,19.60352 l -1.9707,-0.52539 c -1.51396,-0.0782 -3.03094,-0.1079 -4.54687,-0.0977 l -2.5586,0.01 -2.64453,0.0254 -2.69141,0.0137 c -2.6339,0.38478 -2.76837,0.40122 -4.76806,1.13061 l -2.90961,0.84361 -2.07233,0.33633 c -16.61829,1.26297 -16.61829,1.26297 -30.80859,8.73828 l -2.34766,0.91797 c -2.80179,1.143 -4.73797,2.50381 -7.08984,4.39453 l -2.33984,1.875 -2.22266,1.8125 -1.87891,1.5 c -3.00332,2.37262 -2.45646,2.59136 -4.57423,5.71874 l -2.14063,4.45311 c -1.49352,4.09518 -2.33973,5.44203 -5.40623,8.32815 l -1.35942,1.5312 c 0,0 -3.72487,3.70634 -5.64058,5.4688 l -2,3 c 2.28549,-20.17533 13.35975,-37.79348 25.70581,-53.35425 1.08147,-1.37524 2.11759,-2.78598 3.14185,-4.20434 3.06598,-3.47776 6.63508,-6.1117 10.33984,-8.87891 l 2.32104,-1.74609 c 2.15715,-1.61471 4.32241,-3.21774 6.49146,-4.81641 l 2.69531,-2.00391 c 14.73476,-10.4122 33.47583,-13.38774 50.86719,-16.43359 24.60944,-4.38733 47.11019,-12.77905 63.4375,-32.5625 l 1.44922,-1.57031 c 8.26187,-9.00884 14.07636,-20.18541 19.89844,-30.84521 2.33855,-4.2702 4.76926,-8.42358 7.40234,-12.52198 4.16932,-6.63554 7.67914,-13.59227 11.25,-20.56273 16.549,-32.23778 16.549,-32.23778 25.40234,-36.71484 5.57572,-1.68529 12.10637,-1.95477 17.41016,0.71484 z"
     fill="#8f3ed6"
     id="path3"
     sodipodi:nodetypes="ccccccccccccccccccccccccccccccccccccccccccccc" />
  <path
     d="m 387.69847,76.200584 c 9.83416,-1.604935 20.38466,0.911675 30,3 0.77183,0.166289 1.54365,0.332578 2.33887,0.503906 23.64093,5.255699 43.31617,16.570529 60.66113,33.49609 0.83918,0.80051 1.67836,1.60102 2.54297,2.42579 24.03148,23.37707 38.33934,55.27216 39.53711,88.81689 0.0737,5.44984 0.0737,5.44984 -1.08008,7.75732 -3.56594,0.99586 -6.98125,1.12851 -10.66797,1.13281 -1.05767,0.001 -2.11535,0.003 -3.20508,0.004 -1.09377,-0.004 -2.18754,-0.008 -3.31445,-0.0117 -1.10537,0.004 -2.21074,0.008 -3.34961,0.0117 -1.05381,-0.001 -2.10762,-0.003 -3.19336,-0.004 -0.96317,-0.001 -1.92634,-0.002 -2.9187,-0.003 -2.35083,-0.12981 -2.35083,-0.12981 -4.35083,-1.12981 -0.4231,-1.97095 -0.4231,-1.97095 -0.67578,-4.56641 -0.10272,-0.95245 -0.20545,-1.90491 -0.31128,-2.88623 -0.1074,-1.02625 -0.21479,-2.05251 -0.32544,-3.10986 -3.33186,-27.94972 -14.71108,-47.95704 -34.6875,-67.4375 -0.74508,-0.81984 -1.49016,-1.63968 -2.25781,-2.48437 -3.79081,-3.47761 -7.97175,-5.91438 -12.42969,-8.45313 -0.92539,-0.52706 -1.85077,-1.05413 -2.8042,-1.59716 -14.8213,-8.19239 -30.19699,-12.24368 -47.07471,-13.12159 -2.43359,-0.34375 -2.43359,-0.34375 -4.43359,-2.34375 -0.25879,-2.65795 -0.25879,-2.65795 -0.26563,-5.99609 -0.003,-1.198181 -0.005,-2.396371 -0.008,-3.630861 0.008,-1.25748 0.0155,-2.51496 0.0234,-3.81055 -0.008,-1.25361 -0.0155,-2.50722 -0.0234,-3.79882 0.003,-1.19948 0.005,-2.39895 0.008,-3.63477 0.002,-1.10271 0.005,-2.20542 0.007,-3.341552 0.25879,-2.787353 0.25879,-2.787353 2.25879,-5.787353 z"
     fill="#9040d7"
     id="path4" />
  <path
     d="m 388.69847,126.20058 c 19.35558,1.15023 34.33191,5.42298 50,17 0.5688,0.41911 1.1376,0.83822 1.72363,1.27002 8.66143,6.52187 14.57238,13.5203 20.27637,22.72998 0.84498,1.22977 0.84498,1.22977 1.70703,2.48438 6.50767,9.81917 9.27744,21.27205 10.73047,32.82812 0.0931,0.72325 0.18627,1.44649 0.28223,2.19165 0.40165,3.84367 0.49272,5.17718 -1.71973,8.49585 -2.51001,0.39664 -4.78909,0.60647 -7.3125,0.6875 -0.71044,0.032 -1.42087,0.064 -2.15283,0.0969 -2.17803,0.0902 -4.35561,0.15606 -6.53467,0.21558 -1.28004,0.0412 -2.56008,0.0825 -3.87891,0.125 -6.52449,0.11664 -6.52449,0.11664 -9.12109,-0.125 -2.99249,-2.99249 -2.97631,-6.72056 -3.6875,-10.75 -3.03887,-15.56023 -9.30399,-26.95144 -22.5625,-36 -8.07875,-4.89417 -16.32018,-7.65867 -25.78906,-7.78125 -1.96094,-0.46875 -1.96094,-0.46875 -3.0669,-2.12475 -1.1035,-2.89317 -1.15301,-5.22107 -1.15967,-8.31665 -0.003,-1.14662 -0.005,-2.29324 -0.008,-3.47461 0.008,-1.19303 0.0155,-2.38606 0.0234,-3.61524 -0.008,-1.19689 -0.0155,-2.39378 -0.0234,-3.62695 0.003,-1.14533 0.005,-2.29066 0.008,-3.4707 0.002,-1.04809 0.005,-2.09618 0.007,-3.17603 0.25879,-2.66382 0.25879,-2.66382 2.25879,-5.66382 z"
     fill="#8f3fd5"
     id="path5" />
  <path
     d="m 281.69847,147.20058 c 35.97046,-0.79934 64.95983,6.90251 96,25 -0.53176,3.89735 -1.45643,5.89774 -4.0625,8.8125 -4.38563,5.36223 -7.17144,11.30679 -10.14063,17.51563 -1.43731,3.00081 -3.0258,5.85128 -4.79687,8.67187 -5.01185,-0.51249 -8.19194,-2.08964 -12.4375,-4.75 -11.00996,-6.60184 -23.05095,-9.65485 -35.5625,-12.25 l 0.91016,1.67969 1.15234,2.19531 1.16016,2.17969 -3.39796,-6.22959 c -4.44118,-7.99112 -6.91804,-26.25348 -23.8247,-38.8251 z"
     fill="#8e3ed6"
     id="path6"
     sodipodi:nodetypes="ccccccccccccc" />
</svg>
