<svg xmlns="http://www.w3.org/2000/svg" viewBox="0 0 256 256" width="256" height="256">
  <defs>
    <linearGradient id="card" x1="0%" y1="0%" x2="100%" y2="100%">
      <stop offset="0%" stop-color="#0f172a"/>
      <stop offset="55%" stop-color="#172554"/>
      <stop offset="100%" stop-color="#1e293b"/>
    </linearGradient>
    <linearGradient id="fur" x1="0%" y1="0%" x2="100%" y2="100%">
      <stop offset="0%" stop-color="#fbbf24"/>
      <stop offset="100%" stop-color="#f59e0b"/>
    </linearGradient>
  </defs>
  <rect width="256" height="256" rx="40" fill="url(#card)"/>
  <path d="M64 88l28 24 36-20 36 20 28-24v84c0 40-32 68-64 68s-64-28-64-68V88z" fill="url(#fur)"/>
  <path d="M92 88L64 88l12-36 28 36z" fill="#fcd34d"/>
  <path d="M164 88h28l-12-36-28 36z" fill="#fcd34d"/>
  <circle cx="104" cy="128" r="10" fill="#111827"/>
  <circle cx="152" cy="128" r="10" fill="#111827"/>
  <circle cx="106" cy="126" r="3" fill="#fff" opacity="0.35"/>
  <circle cx="154" cy="126" r="3" fill="#fff" opacity="0.35"/>
  <path d="M128 142l-10 8 10 8 10-8-10-8z" fill="#111827"/>
  <path d="M96 164c10 14 28 22 32 22s22-8 32-22" fill="none" stroke="#111827" stroke-width="10" stroke-linecap="round"/>
</svg>
